<svg xmlns="http://www.w3.org/2000/svg" width="275.27" height="64" viewBox="0 0 275.27 64">
  <g id="tetahq-logo_1_" data-name="tetahq-logo (1)" transform="translate(-0.01 0.01)">
    <g id="Group_2" data-name="Group 2">
      <path id="Path_1" data-name="Path 1" d="M142.68,251.12a37.81,37.81,0,0,0,3.86-27.85,32.26,32.26,0,0,0-8.73,2.21,28.93,28.93,0,0,1-1.07,17l-12.13-7a32.45,32.45,0,0,0-4.57,7.84l12.17,7A29,29,0,0,1,118,259.74a32,32,0,0,0,2.42,8.67,37.87,37.87,0,0,0,22.26-17.29Z" transform="translate(-117.99 -223.27)" fill="#e43945"/>
      <path id="Path_2" data-name="Path 2" d="M167.78,250.31l12.16-7a32.13,32.13,0,0,0-4.57-7.84l-12.13,7a28.93,28.93,0,0,1-1.07-17,32.17,32.17,0,0,0-8.73-2.21,37.35,37.35,0,0,0,26.13,45.14,32.06,32.06,0,0,0,2.43-8.67,28.91,28.91,0,0,1-14.22-9.42Z" transform="translate(-117.99 -223.27)" fill="#e43945"/>
      <path id="Path_3" data-name="Path 3" d="M123.89,274.41a32.52,32.52,0,0,0,6.29,6.49,29,29,0,0,1,16.17-8.5v15.12a31.334,31.334,0,0,0,3.64.22,32.342,32.342,0,0,0,5.43-.49V272.4a29,29,0,0,1,15.39,7.71,32.92,32.92,0,0,0,6-6.71,37.42,37.42,0,0,0-52.95,1Z" transform="translate(-117.99 -223.75)" fill="#e43945"/>
    </g>
    <path id="Path_4" data-name="Path 4" d="M195.49,241.42v-6.08h29.34v6.08H213.47v28.21h-6.61V241.42Z" transform="translate(-117.99 -223.462)" fill="#fff"/>
    <path id="Path_5" data-name="Path 5" d="M229.58,259.15a7.59,7.59,0,0,0,7.45,5.58,7.3,7.3,0,0,0,6-2.69l5.92,1.71a13.49,13.49,0,0,1-11.9,6.61,13.64,13.64,0,0,1-9.85-3.82,13.45,13.45,0,0,1,9.46-23.12,12.8,12.8,0,0,1,9.5,3.87,13,13,0,0,1,3.87,9.6,15.191,15.191,0,0,1-.2,2.26Zm14.11-4.75a7.44,7.44,0,0,0-7.15-5.34,7.25,7.25,0,0,0-6.91,5.34Z" transform="translate(-117.99 -223.528)" fill="#fff"/>
    <path id="Path_6" data-name="Path 6" d="M251.67,244.16h3.63v-5h6.12v5h6.32v5.34h-6.32v11.21a3,3,0,0,0,3.14,3.09h3.18v5.83H264a8.82,8.82,0,0,1-6.17-2.3,7.42,7.42,0,0,1-2.5-5.73V249.5H251.7Z" transform="translate(-117.99 -223.494)" fill="#fff"/>
    <path id="Path_7" data-name="Path 7" d="M290.71,246.17v-2h6.08v25.47h-6.08v-2a12.07,12.07,0,0,1-7.74,2.74,11.66,11.66,0,0,1-8.86-3.82,13.78,13.78,0,0,1-3.53-9.65,13.59,13.59,0,0,1,3.53-9.6,11.57,11.57,0,0,1,8.86-3.87,12.07,12.07,0,0,1,7.74,2.73Zm-6.95,3.38a6.45,6.45,0,0,0-4.9,2.1,8,8,0,0,0,0,10.48,6.42,6.42,0,0,0,4.9,2.11,6.33,6.33,0,0,0,4.85-2.11,7.86,7.86,0,0,0,0-10.48,6.36,6.36,0,0,0-4.85-2.1Z" transform="translate(-117.99 -223.528)" fill="#fff"/>
    <path id="Path_8" data-name="Path 8" d="M302.22,269.63V235.34h6.57v13.91h16.8V235.34h6.61v34.29h-6.61v-14.3h-16.8v14.3Z" transform="translate(-117.99 -223.462)" fill="#fff"/>
    <path id="Path_9" data-name="Path 9" d="M342,265.27a17.5,17.5,0,0,1-5-12.78,17.91,17.91,0,1,1,35.81,0A17.51,17.51,0,0,1,369,263.65l4,4-4.46,4.46-4.21-4.26a18.2,18.2,0,0,1-9.5,2.54A17.51,17.51,0,0,1,342,265.27Zm4.9-4.56a10.45,10.45,0,0,0,7.89,3.29,11.25,11.25,0,0,0,4.65-1l-5.14-5.2,4.41-4.4,5.43,5.38a11.92,11.92,0,0,0,1.72-6.31,11.44,11.44,0,0,0-3.19-8.23,11,11,0,0,0-15.77,0,12.37,12.37,0,0,0,0,16.45Z" transform="translate(-117.99 -223.467)" fill="#fff"/>
    <path id="Path_10" data-name="Path 10" d="M374.76,236.51v-1.89h7.63v1.89h-2.8v7.17h-2v-7.17Z" transform="translate(-117.99 -223.368)" fill="#fff"/>
    <path id="Path_11" data-name="Path 11" d="M383.27,243.68v-9.06h2l3,5.38,3-5.38h2v9.06h-2v-5.23L389,242.71h-1.36l-2.35-4.26v5.23Z" transform="translate(-117.99 -223.368)" fill="#fff"/>
  </g>
</svg>
